<svg width="23" height="14" viewBox="0 0 23 14" fill="none" xmlns="http://www.w3.org/2000/svg">
<line y1="-0.75" x2="2" y2="-0.75" transform="matrix(0 1 1 0 2 6)" stroke="black" stroke-width="1.5"/>
<line y1="-0.75" x2="4" y2="-0.75" transform="matrix(0 1 1 0 5 5)" stroke="black" stroke-width="1.5"/>
<line y1="-0.75" x2="5" y2="-0.75" transform="matrix(0 1 1 0 8 4.5)" stroke="black" stroke-width="1.5"/>
<line y1="-0.75" x2="9" y2="-0.75" transform="matrix(0 1 1 0 11 2.5)" stroke="black" stroke-width="1.5"/>
<line y1="-0.75" x2="14" y2="-0.75" transform="matrix(0 1 1 0 14 0)" stroke="black" stroke-width="1.5"/>
<line y1="-0.75" x2="10" y2="-0.75" transform="matrix(0 1 1 0 17 2)" stroke="black" stroke-width="1.5"/>
<line y1="-0.75" x2="6" y2="-0.75" transform="matrix(0 1 1 0 20 4)" stroke="black" stroke-width="1.5"/>
<line y1="-0.75" x2="8" y2="-0.75" transform="matrix(0 1 1 0 23 3)" stroke="black" stroke-width="1.5"/>
</svg>
