<svg width="1653" height="146" viewBox="0 0 1653 146" fill="none" xmlns="http://www.w3.org/2000/svg">
<path d="M0.635742 0.615234H33.0859L64.6484 110.985L96.5068 0.615234H128.069L78.457 146H49.7549L0.635742 0.615234ZM216.247 116.114H162.689L152.629 146H120.869L172.75 0.615234H207.074L258.561 146H225.617L216.247 116.114ZM207.765 91.0615L189.616 33.8545L170.876 91.0615H207.765ZM277.104 0.615234H307.482V119.862H379.484V146H277.104V0.615234ZM501.789 82.4805H431.168V119.862H511.652V146H401.479V0.615234H508.102V26.3584H431.168V57.2305H501.789V82.4805ZM652.895 146H622.516L563.139 42.7314V146H534.831V0.615234H566.689L624.587 102.108V0.615234H652.895V146ZM786.937 0.615234V26.3584H743.439V146H712.863V26.3584H669.169V0.615234H786.937ZM802.422 0.615234H832.604V146H802.422V0.615234ZM978.58 146H948.201L888.824 42.7314V146H860.517V0.615234H892.375L950.272 102.108V0.615234H978.58V146ZM1052.46 0.615234H1084.91L1116.47 110.985L1148.33 0.615234H1179.89L1130.28 146H1101.58L1052.46 0.615234ZM1299.14 82.4805H1228.52V119.862H1309V146H1198.83V0.615234H1305.45V26.3584H1228.52V57.2305H1299.14V82.4805ZM1394.42 88.9902H1363.05V146H1333.36V0.615234H1404.67C1414.87 0.8125 1422.69 2.06185 1428.15 4.36328C1433.67 6.66471 1438.34 10.0511 1442.15 14.5225C1445.31 18.2048 1447.81 22.2816 1449.65 26.7529C1451.49 31.2243 1452.41 36.3203 1452.41 42.041C1452.41 48.9453 1450.67 55.751 1447.18 62.458C1443.7 69.0993 1437.95 73.8008 1429.92 76.5625C1436.63 79.2585 1441.37 83.1051 1444.13 88.1025C1446.95 93.0342 1448.37 100.596 1448.37 110.788V120.553C1448.37 127.194 1448.63 131.698 1449.16 134.065C1449.95 137.813 1451.79 140.575 1454.68 142.351V146H1421.24C1420.32 142.778 1419.67 140.181 1419.27 138.208C1418.48 134.131 1418.06 129.956 1417.99 125.682L1417.79 112.169C1417.66 102.897 1415.95 96.7165 1412.66 93.626C1409.44 90.5355 1403.36 88.9902 1394.42 88.9902ZM1412.86 62.5566C1418.91 59.7949 1421.93 54.3372 1421.93 46.1836C1421.93 37.3724 1419.01 31.4544 1413.16 28.4297C1409.87 26.7201 1404.94 25.8652 1398.36 25.8652H1363.05V64.9238H1397.47C1404.31 64.9238 1409.44 64.1348 1412.86 62.5566ZM1476.28 0.615234H1506.46V146H1476.28V0.615234ZM1652.44 146H1622.06L1562.68 42.7314V146H1534.38V0.615234H1566.23L1624.13 102.108V0.615234H1652.44V146Z" fill="#595959"/>
</svg>
